<mxfile host="app.diagrams.net" agent="Mozilla/5.0 (Windows NT 10.0; Win64; x64) AppleWebKit/537.36 (KHTML, like Gecko) Chrome/135.0.0.0 Safari/537.36" version="26.2.12">
  <diagram name="Trang-1" id="SRu0IVTG9Jn2BEHun2aY">
    <mxGraphModel dx="1491" dy="1972" grid="1" gridSize="10" guides="1" tooltips="1" connect="1" arrows="1" fold="1" page="1" pageScale="1" pageWidth="827" pageHeight="1169" math="0" shadow="0">
      <root>
        <mxCell id="0" />
        <mxCell id="1" parent="0" />
        <mxCell id="NF-nZVXn5Gl8jipiBjeM-1" style="rounded=0;orthogonalLoop=1;jettySize=auto;html=1;entryX=0;entryY=0.5;entryDx=0;entryDy=0;exitX=0.5;exitY=0.5;exitDx=0;exitDy=0;exitPerimeter=0;endArrow=none;startFill=0;" parent="1" source="NF-nZVXn5Gl8jipiBjeM-4" target="NF-nZVXn5Gl8jipiBjeM-11" edge="1">
          <mxGeometry relative="1" as="geometry" />
        </mxCell>
        <mxCell id="NF-nZVXn5Gl8jipiBjeM-2" style="rounded=0;orthogonalLoop=1;jettySize=auto;html=1;exitX=0.5;exitY=0.5;exitDx=0;exitDy=0;exitPerimeter=0;endArrow=none;startFill=0;" parent="1" source="NF-nZVXn5Gl8jipiBjeM-4" target="NF-nZVXn5Gl8jipiBjeM-12" edge="1">
          <mxGeometry relative="1" as="geometry" />
        </mxCell>
        <mxCell id="NF-nZVXn5Gl8jipiBjeM-3" style="rounded=0;orthogonalLoop=1;jettySize=auto;html=1;exitX=0.5;exitY=0.5;exitDx=0;exitDy=0;exitPerimeter=0;entryX=0;entryY=0.5;entryDx=0;entryDy=0;endArrow=none;startFill=0;" parent="1" source="NF-nZVXn5Gl8jipiBjeM-4" target="NF-nZVXn5Gl8jipiBjeM-14" edge="1">
          <mxGeometry relative="1" as="geometry" />
        </mxCell>
        <object label="User" id="NF-nZVXn5Gl8jipiBjeM-4">
          <mxCell style="shape=umlActor;verticalLabelPosition=bottom;verticalAlign=top;html=1;outlineConnect=0;" parent="1" vertex="1">
            <mxGeometry x="70" y="50" width="30" height="60" as="geometry" />
          </mxCell>
        </object>
        <mxCell id="NF-nZVXn5Gl8jipiBjeM-5" style="rounded=0;orthogonalLoop=1;jettySize=auto;html=1;entryX=1;entryY=0.5;entryDx=0;entryDy=0;endArrow=none;startFill=0;" parent="1" source="NF-nZVXn5Gl8jipiBjeM-9" target="NF-nZVXn5Gl8jipiBjeM-26" edge="1">
          <mxGeometry relative="1" as="geometry" />
        </mxCell>
        <mxCell id="NF-nZVXn5Gl8jipiBjeM-9" value="Engineer" style="shape=umlActor;verticalLabelPosition=bottom;verticalAlign=top;html=1;outlineConnect=0;" parent="1" vertex="1">
          <mxGeometry x="1170" y="180" width="30" height="60" as="geometry" />
        </mxCell>
        <mxCell id="NF-nZVXn5Gl8jipiBjeM-10" value="" style="rounded=0;whiteSpace=wrap;html=1;fillColor=none;" parent="1" vertex="1">
          <mxGeometry x="230" y="-130" width="850" height="760" as="geometry" />
        </mxCell>
        <mxCell id="NF-nZVXn5Gl8jipiBjeM-11" value="Cài đặt mode&amp;nbsp;&lt;div&gt;khởi động&lt;span style=&quot;background-color: transparent; color: light-dark(rgb(0, 0, 0), rgb(255, 255, 255));&quot;&gt;&amp;nbsp;bơm&lt;/span&gt;&lt;/div&gt;" style="ellipse;whiteSpace=wrap;html=1;" parent="1" vertex="1">
          <mxGeometry x="290" y="-90" width="120" height="80" as="geometry" />
        </mxCell>
        <mxCell id="NF-nZVXn5Gl8jipiBjeM-12" value="Cài đặt thời gian bơm trên&lt;div&gt;1 lần chạy&lt;/div&gt;" style="ellipse;whiteSpace=wrap;html=1;" parent="1" vertex="1">
          <mxGeometry x="290" y="20" width="120" height="80" as="geometry" />
        </mxCell>
        <mxCell id="NF-nZVXn5Gl8jipiBjeM-13" value="Cài đặt số lần bơm chạy&amp;nbsp;&lt;span style=&quot;background-color: transparent; color: light-dark(rgb(0, 0, 0), rgb(255, 255, 255));&quot;&gt;trên ngày&lt;/span&gt;" style="ellipse;whiteSpace=wrap;html=1;" parent="1" vertex="1">
          <mxGeometry x="290" y="130" width="120" height="80" as="geometry" />
        </mxCell>
        <mxCell id="NF-nZVXn5Gl8jipiBjeM-14" value="Khóa nút điều khiển vật lý trên bơm" style="ellipse;whiteSpace=wrap;html=1;" parent="1" vertex="1">
          <mxGeometry x="290" y="230" width="120" height="80" as="geometry" />
        </mxCell>
        <mxCell id="NF-nZVXn5Gl8jipiBjeM-15" style="rounded=0;orthogonalLoop=1;jettySize=auto;html=1;exitX=0;exitY=0.5;exitDx=0;exitDy=0;endArrow=none;startFill=0;" parent="1" source="NF-nZVXn5Gl8jipiBjeM-13" edge="1">
          <mxGeometry relative="1" as="geometry">
            <mxPoint x="85" y="80" as="targetPoint" />
          </mxGeometry>
        </mxCell>
        <mxCell id="DFt91M2dnstmhZs2quTm-4" value="&amp;lt;&amp;lt;extend&amp;gt;&amp;gt;" style="rounded=0;orthogonalLoop=1;jettySize=auto;html=1;dashed=1;labelPosition=center;verticalLabelPosition=middle;align=center;verticalAlign=middle;endArrow=classic;startFill=0;endFill=1;exitX=1;exitY=0.5;exitDx=0;exitDy=0;entryX=0;entryY=0;entryDx=0;entryDy=0;" edge="1" parent="1" source="NF-nZVXn5Gl8jipiBjeM-16" target="DFt91M2dnstmhZs2quTm-1">
          <mxGeometry x="-0.011" y="-4" relative="1" as="geometry">
            <mxPoint as="offset" />
          </mxGeometry>
        </mxCell>
        <mxCell id="NF-nZVXn5Gl8jipiBjeM-16" value="Thời gian bơm chống&lt;div&gt;tắc nghẽn đường&lt;/div&gt;&lt;div&gt;&amp;nbsp;ống&lt;/div&gt;" style="ellipse;whiteSpace=wrap;html=1;" parent="1" vertex="1">
          <mxGeometry x="700" y="-70" width="120" height="80" as="geometry" />
        </mxCell>
        <mxCell id="NF-nZVXn5Gl8jipiBjeM-17" value="Thời gian trễ tắt máy" style="ellipse;whiteSpace=wrap;html=1;" parent="1" vertex="1">
          <mxGeometry x="700" y="40" width="120" height="80" as="geometry" />
        </mxCell>
        <mxCell id="NF-nZVXn5Gl8jipiBjeM-18" value="Ngưỡng cảnh báo tràn nước" style="ellipse;whiteSpace=wrap;html=1;" parent="1" vertex="1">
          <mxGeometry x="700" y="410" width="120" height="80" as="geometry" />
        </mxCell>
        <mxCell id="NF-nZVXn5Gl8jipiBjeM-19" value="Ngưỡng quá tải&lt;div&gt;dòng điện&lt;/div&gt;" style="ellipse;whiteSpace=wrap;html=1;" parent="1" vertex="1">
          <mxGeometry x="700" y="504" width="120" height="80" as="geometry" />
        </mxCell>
        <mxCell id="DFt91M2dnstmhZs2quTm-10" value="&amp;lt;&amp;lt;extend&amp;gt;&amp;gt;" style="rounded=0;orthogonalLoop=1;jettySize=auto;html=1;exitX=1;exitY=0.5;exitDx=0;exitDy=0;entryX=0;entryY=1;entryDx=0;entryDy=0;dashed=1;" edge="1" parent="1" source="NF-nZVXn5Gl8jipiBjeM-20" target="DFt91M2dnstmhZs2quTm-1">
          <mxGeometry relative="1" as="geometry" />
        </mxCell>
        <mxCell id="NF-nZVXn5Gl8jipiBjeM-20" value="Thời gian tự khởi động lại sau lỗi" style="ellipse;whiteSpace=wrap;html=1;" parent="1" vertex="1">
          <mxGeometry x="700" y="160" width="120" height="80" as="geometry" />
        </mxCell>
        <mxCell id="NF-nZVXn5Gl8jipiBjeM-21" style="edgeStyle=orthogonalEdgeStyle;rounded=0;orthogonalLoop=1;jettySize=auto;html=1;dashed=1;" parent="1" source="NF-nZVXn5Gl8jipiBjeM-23" target="NF-nZVXn5Gl8jipiBjeM-11" edge="1">
          <mxGeometry relative="1" as="geometry" />
        </mxCell>
        <mxCell id="NF-nZVXn5Gl8jipiBjeM-22" value="&amp;lt;&amp;lt; extend &amp;gt;&amp;gt;" style="edgeLabel;html=1;align=center;verticalAlign=middle;resizable=0;points=[];" parent="NF-nZVXn5Gl8jipiBjeM-21" vertex="1" connectable="0">
          <mxGeometry x="-0.02" y="-2" relative="1" as="geometry">
            <mxPoint as="offset" />
          </mxGeometry>
        </mxCell>
        <mxCell id="NF-nZVXn5Gl8jipiBjeM-23" value="Cài đặt thời gian bắt đầu chạy bơm" style="ellipse;whiteSpace=wrap;html=1;" parent="1" vertex="1">
          <mxGeometry x="510" y="-90" width="120" height="80" as="geometry" />
        </mxCell>
        <mxCell id="NF-nZVXn5Gl8jipiBjeM-24" style="rounded=0;orthogonalLoop=1;jettySize=auto;html=1;entryX=0;entryY=0;entryDx=0;entryDy=0;dashed=1;exitX=1;exitY=0.5;exitDx=0;exitDy=0;" parent="1" source="NF-nZVXn5Gl8jipiBjeM-27" target="NF-nZVXn5Gl8jipiBjeM-26" edge="1">
          <mxGeometry relative="1" as="geometry" />
        </mxCell>
        <mxCell id="NF-nZVXn5Gl8jipiBjeM-25" value="&amp;lt;&amp;lt; extend &amp;gt;&amp;gt;" style="edgeLabel;html=1;align=center;verticalAlign=middle;resizable=0;points=[];rotation=20;" parent="NF-nZVXn5Gl8jipiBjeM-24" vertex="1" connectable="0">
          <mxGeometry x="0.0175" y="-4" relative="1" as="geometry">
            <mxPoint as="offset" />
          </mxGeometry>
        </mxCell>
        <mxCell id="NF-nZVXn5Gl8jipiBjeM-26" value="Cài đặt ngưỡng cảnh báo cho bơm" style="ellipse;whiteSpace=wrap;html=1;" parent="1" vertex="1">
          <mxGeometry x="950" y="380" width="120" height="80" as="geometry" />
        </mxCell>
        <mxCell id="NF-nZVXn5Gl8jipiBjeM-27" value="Ngưỡng cảnh báo chạy khô" style="ellipse;whiteSpace=wrap;html=1;" parent="1" vertex="1">
          <mxGeometry x="700" y="310" width="120" height="80" as="geometry" />
        </mxCell>
        <mxCell id="NF-nZVXn5Gl8jipiBjeM-28" style="rounded=0;orthogonalLoop=1;jettySize=auto;html=1;entryX=0;entryY=0.5;entryDx=0;entryDy=0;dashed=1;exitX=1;exitY=0.5;exitDx=0;exitDy=0;" parent="1" source="NF-nZVXn5Gl8jipiBjeM-18" target="NF-nZVXn5Gl8jipiBjeM-26" edge="1">
          <mxGeometry relative="1" as="geometry">
            <mxPoint x="420" y="430" as="sourcePoint" />
            <mxPoint x="550" y="480" as="targetPoint" />
          </mxGeometry>
        </mxCell>
        <mxCell id="NF-nZVXn5Gl8jipiBjeM-29" value="&amp;lt;&amp;lt; extend &amp;gt;&amp;gt;" style="edgeLabel;html=1;align=center;verticalAlign=middle;resizable=0;points=[];rotation=0;" parent="NF-nZVXn5Gl8jipiBjeM-28" vertex="1" connectable="0">
          <mxGeometry x="0.0175" y="-4" relative="1" as="geometry">
            <mxPoint as="offset" />
          </mxGeometry>
        </mxCell>
        <mxCell id="NF-nZVXn5Gl8jipiBjeM-30" style="rounded=0;orthogonalLoop=1;jettySize=auto;html=1;entryX=0;entryY=1;entryDx=0;entryDy=0;dashed=1;exitX=0.983;exitY=0.619;exitDx=0;exitDy=0;exitPerimeter=0;" parent="1" source="NF-nZVXn5Gl8jipiBjeM-19" target="NF-nZVXn5Gl8jipiBjeM-26" edge="1">
          <mxGeometry relative="1" as="geometry">
            <mxPoint x="420" y="485" as="sourcePoint" />
            <mxPoint x="540" y="585" as="targetPoint" />
          </mxGeometry>
        </mxCell>
        <mxCell id="NF-nZVXn5Gl8jipiBjeM-31" value="&amp;lt;&amp;lt; extend &amp;gt;&amp;gt;" style="edgeLabel;html=1;align=center;verticalAlign=middle;resizable=0;points=[];rotation=-30;" parent="NF-nZVXn5Gl8jipiBjeM-30" vertex="1" connectable="0">
          <mxGeometry x="0.0175" y="-4" relative="1" as="geometry">
            <mxPoint as="offset" />
          </mxGeometry>
        </mxCell>
        <mxCell id="NF-nZVXn5Gl8jipiBjeM-32" value="&lt;b&gt;&lt;font style=&quot;font-size: 40px;&quot;&gt;Phân rã điều khiển thiết bị&lt;/font&gt;&lt;/b&gt;" style="text;html=1;align=center;verticalAlign=middle;resizable=0;points=[];autosize=1;strokeColor=none;fillColor=none;" parent="1" vertex="1">
          <mxGeometry x="420" y="-210" width="520" height="60" as="geometry" />
        </mxCell>
        <mxCell id="DFt91M2dnstmhZs2quTm-1" value="Điều chỉnh thời gian tổng quan" style="ellipse;whiteSpace=wrap;html=1;" vertex="1" parent="1">
          <mxGeometry x="950" y="30" width="120" height="80" as="geometry" />
        </mxCell>
        <mxCell id="DFt91M2dnstmhZs2quTm-11" style="rounded=0;orthogonalLoop=1;jettySize=auto;html=1;exitX=1;exitY=0.5;exitDx=0;exitDy=0;entryX=0.5;entryY=0.5;entryDx=0;entryDy=0;entryPerimeter=0;endArrow=none;startFill=0;" edge="1" parent="1" source="DFt91M2dnstmhZs2quTm-1" target="NF-nZVXn5Gl8jipiBjeM-9">
          <mxGeometry relative="1" as="geometry" />
        </mxCell>
        <mxCell id="DFt91M2dnstmhZs2quTm-9" value="&amp;lt;&amp;lt;extend&amp;gt;&amp;gt;" style="rounded=0;orthogonalLoop=1;jettySize=auto;html=1;exitX=1;exitY=0.5;exitDx=0;exitDy=0;entryX=0;entryY=0.5;entryDx=0;entryDy=0;dashed=1;startArrow=none;startFill=0;align=center;" edge="1" parent="1" source="NF-nZVXn5Gl8jipiBjeM-17" target="DFt91M2dnstmhZs2quTm-1">
          <mxGeometry relative="1" as="geometry">
            <mxPoint as="offset" />
          </mxGeometry>
        </mxCell>
      </root>
    </mxGraphModel>
  </diagram>
</mxfile>
